<svg width="842" height="408" viewBox="0 0 842 408" fill="none" xmlns="http://www.w3.org/2000/svg">
<rect x="65" y="0.5" width="127" height="127" rx="11.5" stroke="#4765FF"/>
<path d="M125.031 54H125.838C127.612 54.0538 129.439 54.43 130.998 55.3976C132.288 56.2039 133.256 57.3865 133.793 58.7841C134.17 59.6979 134.385 60.7192 134.438 61.6868H128.633C128.579 60.8805 128.31 60.0204 127.665 59.4829C127.02 58.8916 126.106 58.7303 125.246 58.7841C124.494 58.7841 123.741 59.0529 123.204 59.5904C122.559 60.2355 122.236 61.0955 122.075 61.9556C121.86 62.9769 121.86 64.052 121.967 65.0733C122.075 66.0946 122.29 67.1697 122.935 67.976C123.419 68.6211 124.118 68.9973 124.924 69.1048C125.73 69.2124 126.59 69.1586 127.343 68.7823C127.934 68.4598 128.364 67.9223 128.579 67.331C128.74 66.9547 128.794 66.5247 128.848 66.0946H134.6C134.492 67.761 134.008 69.4274 133.041 70.7712C132.127 72.0076 130.837 72.8676 129.385 73.4052C128.31 73.7814 127.128 73.9427 125.999 73.9965H125.085C123.526 73.9427 121.967 73.6202 120.57 72.9214C119.172 72.2226 118.043 71.1475 117.237 69.8036C116.269 68.191 115.839 66.2559 115.786 64.4283C115.678 62.3856 116.001 60.3967 116.915 58.6766C117.613 57.279 118.688 56.0964 120.032 55.3438C121.537 54.43 123.257 54 125.031 54Z" fill="#4765FF"/>
<path d="M158.842 54H159.702C161.422 54.0538 163.196 54.3763 164.648 55.3438C165.4 55.8276 166.045 56.4727 166.475 57.2252C166.959 58.0853 167.228 58.9991 167.335 59.9667H161.584C161.53 59.5367 161.315 59.1604 161.046 58.8916C160.67 58.5153 160.079 58.4078 159.541 58.3541C159.057 58.3003 158.52 58.3541 158.036 58.4616C157.713 58.5691 157.391 58.7841 157.283 59.1604C157.176 59.4829 157.176 59.9129 157.391 60.1817C157.552 60.4505 157.875 60.6117 158.197 60.7192C158.735 60.9343 159.272 61.0418 159.81 61.203C160.939 61.5255 162.067 61.7406 163.196 62.0631C163.949 62.2781 164.648 62.5469 165.293 62.9232C165.991 63.3532 166.637 63.9445 167.12 64.6433C167.604 65.3421 167.819 66.2021 167.873 67.0622C167.927 68.0835 167.765 69.1586 167.335 70.1262C167.013 70.8787 166.475 71.5775 165.83 72.1151C164.594 73.0826 163.089 73.5664 161.53 73.7814C160.939 73.8352 160.401 73.8889 159.81 73.8889H158.95C157.552 73.8352 156.155 73.6202 154.864 73.0289C153.628 72.4913 152.499 71.5238 151.854 70.3412C151.37 69.4811 151.102 68.4598 150.994 67.4922H156.907C157.015 67.9223 157.176 68.406 157.498 68.7286C157.767 68.9973 158.09 69.2124 158.466 69.2661C158.95 69.3736 159.487 69.4274 159.971 69.3736C160.455 69.3199 160.992 69.2661 161.422 68.9973C161.691 68.8361 161.906 68.5136 161.96 68.191C162.014 67.8685 161.96 67.4922 161.691 67.2235C161.476 66.9547 161.1 66.8472 160.777 66.7397C160.186 66.5784 159.649 66.4172 159.057 66.2559C157.982 65.9871 156.961 65.7184 155.886 65.3421C155.133 65.0733 154.381 64.8583 153.682 64.4283C152.929 63.9445 152.284 63.2994 151.854 62.4931C151.424 61.6331 151.263 60.6117 151.263 59.6442C151.317 58.7303 151.532 57.8703 151.962 57.064C152.392 56.3114 153.037 55.6664 153.789 55.1826C155.294 54.3225 157.068 54.0538 158.842 54Z" fill="#4765FF"/>
<path d="M94.2841 54.8063C94.7679 54.3225 95.4667 54 96.2192 54C96.9718 54 97.7244 54.2688 98.2619 54.8063L101.541 58.0853L104.82 54.8063C105.304 54.3225 106.056 54 106.755 54C107.508 54 108.206 54.2688 108.744 54.8063L112.775 58.8379C113.313 59.3754 113.636 60.1817 113.582 60.9343C113.528 61.6331 113.259 62.2781 112.775 62.7619C109.013 66.4709 105.304 70.2337 101.541 73.9427C97.7781 70.2337 94.0691 66.4709 90.3063 62.7619C89.8225 62.2781 89.5538 61.6331 89.5 60.988V60.558C89.5538 59.9129 89.8225 59.2679 90.3063 58.7841C91.6502 57.494 92.9403 56.1502 94.2841 54.8063Z" fill="#4765FF"/>
<path d="M133.201 54.4834H139.383C140.458 58.5687 141.479 62.6002 142.554 66.6855C143.683 62.6002 144.812 58.5687 145.941 54.4834H151.908C149.811 60.7726 147.661 67.0618 145.511 73.351H139.437C137.448 67.1156 135.351 60.8264 133.201 54.4834Z" fill="#4765FF"/>
<rect x="205" y="0.5" width="127" height="127" rx="11.5" stroke="#4765FF"/>
<path d="M236.6 74.5175C235.276 74.7423 233.929 74.8097 232.536 74.9892L228.286 62.9502V75.5059C226.962 75.6406 225.754 75.8203 224.5 76V53H228.03L232.861 66.05V53H236.6V74.5175ZM243.916 61.4229C245.356 61.4229 247.563 61.3555 248.886 61.3555V64.9491C247.237 64.9491 245.31 64.9491 243.916 65.0165V70.3623C246.099 70.2276 248.283 70.0478 250.489 69.9804V73.4391L240.2 74.2254V53H250.489V56.5938H243.916V61.4229ZM264.308 56.5938H260.452V73.1251C259.198 73.1251 257.944 73.1251 256.737 73.1699V56.5938H252.881V53H264.308L264.308 56.5938ZM270.346 61.1759H275.433V64.7695H270.346V72.9229H266.7V53H277.082V56.5938H270.346V61.1759ZM283.12 69.7783C285.234 69.8231 287.37 69.9806 289.437 70.0927V73.6416C286.116 73.4393 282.795 73.2374 279.404 73.1699V53H283.12V69.7783ZM292.573 73.8887C293.757 73.9562 295.011 74.0236 296.219 74.1581V53H292.573V73.8887ZM312.5 53L307.785 63.9385L312.5 76C311.106 75.8203 309.713 75.5732 308.319 75.3486L305.649 68.7003L302.931 74.8097C301.584 74.5849 300.284 74.5175 298.937 74.3378L303.721 63.8036L299.401 53H303.396L305.834 59.042L308.436 53H312.5Z" fill="#4765FF"/>
<rect x="345" y="0.5" width="127" height="127" rx="11.5" stroke="#4765FF"/>
<path fill-rule="evenodd" clip-rule="evenodd" d="M388.714 54.6299C389.974 54.9691 390.968 55.9624 391.307 57.2223C391.937 59.5239 391.912 64.321 391.912 64.321C391.912 64.321 391.912 69.0939 391.307 71.3955C390.968 72.6554 389.974 73.6487 388.714 73.9879C386.413 74.5936 377.206 74.5936 377.206 74.5936C377.206 74.5936 368.024 74.5936 365.698 73.9637C364.438 73.6245 363.445 72.6311 363.106 71.3713C362.5 69.0939 362.5 64.2968 362.5 64.2968C362.5 64.2968 362.5 59.5239 363.106 57.2223C363.445 55.9624 364.462 54.9449 365.698 54.6057C368 54 377.206 54 377.206 54C377.206 54 386.413 54 388.714 54.6299ZM374.275 68.7066V59.8877L381.931 64.2971L374.275 68.7066Z" fill="#4765FF"/>
<path d="M405.212 72.7524C404.631 72.3648 404.219 71.7591 403.977 70.9111C403.734 70.0873 403.613 68.9729 403.613 67.6161V65.7506C403.613 64.3696 403.759 63.2551 404.025 62.4071C404.316 61.5592 404.752 60.9535 405.333 60.5658C405.939 60.1782 406.714 59.9844 407.684 59.9844C408.628 59.9844 409.404 60.1782 409.985 60.5658C410.567 60.9535 410.979 61.5834 411.245 62.4071C411.512 63.2309 411.657 64.3454 411.657 65.7506V67.6161C411.657 68.9971 411.536 70.0873 411.269 70.9353C411.003 71.7591 410.591 72.389 410.009 72.7766C409.428 73.1643 408.628 73.3581 407.635 73.3581C406.618 73.3339 405.794 73.14 405.212 72.7524ZM408.483 70.7173C408.653 70.3054 408.725 69.6028 408.725 68.6579V64.6361C408.725 63.7154 408.653 63.0371 408.483 62.601C408.313 62.1649 408.047 61.9711 407.635 61.9711C407.247 61.9711 406.957 62.1891 406.811 62.601C406.642 63.0371 406.569 63.7154 406.569 64.6361V68.6579C406.569 69.6028 406.642 70.3054 406.811 70.7173C406.957 71.1291 407.247 71.3472 407.659 71.3472C408.047 71.3472 408.313 71.1534 408.483 70.7173Z" fill="#4765FF"/>
<path d="M449.937 67.6409V68.2951C449.937 69.1188 449.962 69.7488 450.01 70.1606C450.059 70.5725 450.155 70.8875 450.325 71.0571C450.47 71.2509 450.713 71.3478 451.052 71.3478C451.488 71.3478 451.779 71.1782 451.948 70.839C452.118 70.4998 452.191 69.9426 452.215 69.1431L454.71 69.2884C454.734 69.4096 454.734 69.5549 454.734 69.7488C454.734 70.9359 454.42 71.8323 453.765 72.4138C453.111 72.9953 452.191 73.286 451.003 73.286C449.574 73.286 448.581 72.8257 447.999 71.9293C447.418 71.0328 447.127 69.6518 447.127 67.7621V65.5089C447.127 63.5707 447.418 62.1655 448.023 61.269C448.629 60.3726 449.647 59.9365 451.076 59.9365C452.069 59.9365 452.845 60.1303 453.378 60.4938C453.911 60.8572 454.274 61.4386 454.492 62.1897C454.71 62.965 454.807 64.031 454.807 65.3878V67.5925H449.937V67.6409ZM450.301 62.2139C450.155 62.4078 450.059 62.6985 450.01 63.1104C449.962 63.5222 449.937 64.1522 449.937 65.0001V65.9208H452.069V65.0001C452.069 64.1764 452.045 63.5465 451.997 63.1104C451.948 62.6743 451.827 62.3835 451.682 62.2139C451.536 62.0443 451.294 61.9474 451.003 61.9474C450.664 61.9232 450.446 62.0201 450.301 62.2139Z" fill="#4765FF"/>
<path d="M398.139 67.3983L394.844 55.454H397.727L398.89 60.8568C399.181 62.1893 399.399 63.328 399.544 64.2729H399.617C399.714 63.5945 399.932 62.48 400.271 60.881L401.482 55.454H404.365L401.022 67.3983V73.116H398.163V67.3983H398.139Z" fill="#4765FF"/>
<path d="M421.034 60.2266V73.1399H418.757L418.514 71.5651H418.442C417.836 72.7523 416.891 73.358 415.656 73.358C414.808 73.358 414.178 73.0673 413.766 72.51C413.354 71.9528 413.16 71.0806 413.16 69.8692V60.2266H416.067V69.6996C416.067 70.2811 416.14 70.6929 416.261 70.9352C416.382 71.1775 416.6 71.2986 416.891 71.2986C417.134 71.2986 417.376 71.226 417.618 71.0564C417.86 70.911 418.03 70.7172 418.127 70.4749V60.2266H421.034Z" fill="#4765FF"/>
<path d="M435.935 60.2266V73.1399H433.657L433.415 71.5651H433.342C432.736 72.7523 431.792 73.358 430.556 73.358C429.708 73.358 429.078 73.0673 428.666 72.51C428.254 71.9528 428.061 71.0806 428.061 69.8692V60.2266H430.968V69.6996C430.968 70.2811 431.041 70.6929 431.162 70.9352C431.283 71.1775 431.501 71.2986 431.792 71.2986C432.034 71.2986 432.276 71.226 432.518 71.0564C432.761 70.911 432.93 70.7172 433.027 70.4749V60.2266H435.935Z" fill="#4765FF"/>
<path d="M428.933 57.8042H426.05V73.1161H423.215V57.8042H420.332V55.4541H428.933V57.8042Z" fill="#4765FF"/>
<path d="M445.552 62.2862C445.382 61.4624 445.091 60.881 444.704 60.5176C444.316 60.1541 443.759 59.9603 443.081 59.9603C442.548 59.9603 442.039 60.1057 441.578 60.4206C441.118 60.7114 440.755 61.1232 440.512 61.6078H440.488V54.7998H437.678V73.116H440.076L440.367 71.9046H440.44C440.658 72.3407 440.997 72.6799 441.457 72.9464C441.918 73.1887 442.402 73.334 442.959 73.334C443.953 73.334 444.655 72.8737 445.116 71.9773C445.576 71.0808 445.818 69.6514 445.818 67.7374V65.7023C445.794 64.2244 445.721 63.0857 445.552 62.2862ZM442.887 67.5436C442.887 68.4885 442.838 69.2153 442.766 69.7483C442.693 70.2813 442.548 70.669 442.378 70.887C442.184 71.1051 441.942 71.2262 441.651 71.2262C441.409 71.2262 441.191 71.1778 440.997 71.0566C440.803 70.9355 440.634 70.7659 440.512 70.5478V63.2311C440.609 62.8919 440.779 62.6011 441.021 62.3589C441.263 62.1408 441.53 62.0197 441.796 62.0197C442.087 62.0197 442.329 62.1408 442.475 62.3589C442.644 62.6011 442.741 62.9888 442.814 63.5218C442.887 64.079 442.911 64.8543 442.911 65.8477V67.5436H442.887Z" fill="#4765FF"/>
<rect x="485" y="0.5" width="127" height="127" rx="11.5" stroke="#4765FF"/>
<path d="M542.002 64.9905C542.002 69.3621 538.582 72.5835 534.385 72.5835C530.188 72.5835 526.768 69.3621 526.768 64.9905C526.768 60.588 530.188 57.3975 534.385 57.3975C538.582 57.3975 542.002 60.588 542.002 64.9905ZM538.667 64.9905C538.667 62.2586 536.685 60.3895 534.385 60.3895C532.084 60.3895 530.102 62.2586 530.102 64.9905C530.102 67.695 532.084 69.5915 534.385 69.5915C536.685 69.5915 538.667 67.6915 538.667 64.9905Z" fill="#4765FF"/>
<path d="M558.435 64.9905C558.435 69.3621 555.015 72.5835 550.818 72.5835C546.621 72.5835 543.201 69.3621 543.201 64.9905C543.201 60.5915 546.621 57.3975 550.818 57.3975C555.015 57.3975 558.435 60.588 558.435 64.9905ZM555.101 64.9905C555.101 62.2586 553.119 60.3895 550.818 60.3895C548.518 60.3895 546.536 62.2586 546.536 64.9905C546.536 67.695 548.518 69.5915 550.818 69.5915C553.119 69.5915 555.101 67.6915 555.101 64.9905Z" fill="#4765FF"/>
<path d="M574.181 57.8562V71.488C574.181 77.0955 570.874 79.3858 566.965 79.3858C563.285 79.3858 561.07 76.9244 560.234 74.9114L563.137 73.703C563.654 74.9388 564.921 76.3972 566.961 76.3972C569.464 76.3972 571.015 74.8532 571.015 71.9468V70.8547H570.898C570.152 71.7756 568.714 72.5801 566.9 72.5801C563.103 72.5801 559.625 69.2731 559.625 65.0179C559.625 60.7318 563.103 57.3975 566.9 57.3975C568.711 57.3975 570.148 58.202 570.898 59.0955H571.015V57.8596H574.181V57.8562ZM571.251 65.0179C571.251 62.3442 569.467 60.3895 567.197 60.3895C564.897 60.3895 562.97 62.3442 562.97 65.0179C562.97 67.6641 564.897 69.5915 567.197 69.5915C569.467 69.5915 571.251 67.6641 571.251 65.0179Z" fill="#4765FF"/>
<path d="M579.403 49.8662V72.1181H576.15V49.8662H579.403Z" fill="#4765FF"/>
<path d="M592.076 67.49L594.664 69.2154C593.829 70.4513 591.816 72.5806 588.338 72.5806C584.024 72.5806 580.803 69.2462 580.803 64.9876C580.803 60.4721 584.052 57.3945 587.964 57.3945C591.905 57.3945 593.832 60.5303 594.462 62.2249L594.808 63.0876L584.657 67.2915C585.435 68.8149 586.643 69.592 588.338 69.592C590.036 69.592 591.213 68.7567 592.076 67.49ZM584.11 64.7582L590.895 61.9408C590.522 60.9925 589.399 60.3318 588.077 60.3318C586.383 60.3318 584.024 61.8278 584.11 64.7582Z" fill="#4765FF"/>
<path d="M514.458 63.0153V59.7939H525.313C525.419 60.3553 525.474 61.0194 525.474 61.7384C525.474 64.1552 524.814 67.1439 522.684 69.2732C520.613 71.4299 517.967 72.5802 514.461 72.5802C507.964 72.5802 502.5 67.2876 502.5 60.7901C502.5 54.2925 507.964 49 514.461 49C518.056 49 520.616 50.4104 522.54 52.2488L520.267 54.5219C518.888 53.2279 517.019 52.2214 514.458 52.2214C509.713 52.2214 506.002 56.0453 506.002 60.7901C506.002 65.5349 509.713 69.3588 514.458 69.3588C517.535 69.3588 519.288 68.1229 520.411 67.0001C521.322 66.0895 521.921 64.7886 522.157 63.0118L514.458 63.0153Z" fill="#4765FF"/>
<rect x="625" y="0.5" width="127" height="127" rx="11.5" stroke="#4765FF"/>
<path d="M681.91 75.8794H679.096C678.997 75.8794 678.926 75.7675 678.926 75.6608C678.926 75.6228 680.423 70.7956 680.423 70.7956C680.476 70.6151 680.481 70.6098 680.502 70.6098H680.504C680.527 70.6098 680.53 70.6151 680.583 70.7956C680.583 70.7956 682.08 75.6228 682.08 75.6608C682.08 75.7675 682.004 75.8794 681.91 75.8794ZM685.705 64.8347C685.691 64.787 685.663 64.7447 685.624 64.7134C685.586 64.682 685.539 64.6632 685.489 64.6593H675.156C675.107 64.6632 675.06 64.6818 675.021 64.7126C674.983 64.7434 674.955 64.7851 674.94 64.8322C674.94 64.8322 669.228 83.6882 669.228 83.724C669.228 83.8179 669.302 83.8941 669.398 83.8941H676.229C676.256 83.8829 676.28 83.8652 676.298 83.8426C676.317 83.82 676.33 83.7932 676.335 83.7645L677.131 81.2227C677.143 81.1912 677.164 81.164 677.192 81.1445C677.22 81.1251 677.252 81.1142 677.286 81.1132L683.588 81.1083C683.656 81.1134 683.717 81.1617 683.743 81.2227L684.556 83.7645C684.569 83.8231 684.61 83.8763 684.663 83.8967L691.384 83.8941C691.478 83.8941 691.557 83.8229 691.557 83.7289C691.557 83.6958 685.705 64.8347 685.705 64.8347ZM705.176 72.5334L700.979 72.536C700.979 72.536 700.868 72.5029 700.868 72.3758L700.865 70.2584C700.865 70.1313 700.977 70.0982 700.977 70.0982H704.825C705.273 70.0982 706.178 70.322 706.178 71.3565C706.178 72.3911 705.176 72.5334 705.176 72.5334ZM725.298 70.894H734.808V64.6585H722.581C721.437 64.6585 719.828 65.2484 718.905 65.9321C717.983 66.6158 716.648 68.1741 716.648 70.322C716.648 72.4699 717.952 74.14 717.952 74.14C718.621 74.9686 720.303 76.6947 720.303 76.6947C720.342 76.7354 720.364 76.7886 720.364 76.8498C720.364 76.9793 720.26 77.0835 720.131 77.0835H710.713C709.566 77.0784 709.487 76.6235 709.487 76.5574C709.487 76.4405 709.63 76.3668 709.63 76.3668C710.059 76.1608 710.936 75.4769 710.936 75.4769C712.797 74.0282 713.021 72.0404 713.021 70.9754C713.021 69.9076 712.861 68.019 710.952 66.3643C709.043 64.7094 706.625 64.6636 706.625 64.6636H693.186V83.7842C693.186 83.845 693.242 83.8934 693.303 83.8934H700.784V78.5299C700.784 78.4361 700.929 78.5299 700.929 78.5299L704.825 82.4446C706.211 83.845 708.501 83.8934 708.501 83.8934L723.234 83.8908C725.748 83.8908 727.146 82.5234 727.53 82.142C727.911 81.7581 729.185 80.3272 729.185 77.9555C729.185 75.5864 728.102 74.3739 727.639 73.8173C727.228 73.319 725.586 71.5802 725.242 71.2192C725.222 71.2023 725.205 71.181 725.194 71.1569C725.182 71.1327 725.176 71.1063 725.176 71.0796C725.176 70.9955 725.225 70.9169 725.298 70.8938M665.814 83.893C665.865 83.893 665.9 83.8574 665.916 83.8014C665.916 83.8014 671.704 64.7904 671.704 64.7724C671.704 64.7215 671.673 64.6658 671.625 64.6607H664.49C664.454 64.6607 664.431 64.6887 664.423 64.7268C664.423 64.7293 662.947 69.6707 662.947 69.6733C662.936 69.714 662.916 69.7394 662.88 69.7394C662.845 69.7394 662.814 69.7038 662.809 69.6733L661.264 64.7243C661.259 64.691 661.233 64.6607 661.198 64.6607L653.318 64.6581C653.306 64.6613 653.296 64.6671 653.287 64.675C653.278 64.683 653.271 64.6929 653.267 64.7039L651.882 69.6707C651.874 69.714 651.851 69.7394 651.813 69.7394C651.797 69.7391 651.781 69.733 651.769 69.7223C651.757 69.7116 651.749 69.6969 651.747 69.6809L650.278 64.7192C650.276 64.704 650.269 64.6899 650.259 64.6788C650.248 64.6678 650.234 64.6606 650.219 64.6581H642.614C642.584 64.6586 642.555 64.6708 642.534 64.6922C642.513 64.7136 642.502 64.7424 642.502 64.7724C642.502 64.7825 642.504 64.8029 642.504 64.8029L648.379 83.8014C648.394 83.8574 648.43 83.893 648.48 83.893L654.797 83.8955C654.835 83.8904 654.874 83.8472 654.884 83.8014C654.886 83.8014 657.082 76.7323 657.082 76.7323C657.095 76.689 657.113 76.6638 657.148 76.6638C657.187 76.6638 657.207 76.6941 657.217 76.7297L659.36 83.8319C659.366 83.8499 659.378 83.8654 659.393 83.8763C659.409 83.8873 659.427 83.8931 659.446 83.893H665.814ZM660.319 44.0008C659.172 44.0008 657.566 44.5904 656.643 45.2743C655.72 45.958 654.386 47.5163 654.386 49.6642C654.386 51.8121 655.69 53.4823 655.69 53.4823C656.359 54.3109 658.041 56.0495 658.041 56.0495C658.079 56.0902 658.102 56.1435 658.102 56.202C658.102 56.3317 657.998 56.4385 657.869 56.4385H642.5V63.2356H660.972C663.484 63.2356 664.884 61.868 665.268 61.4843C665.649 61.1029 666.92 59.6718 666.92 57.3001C666.92 54.931 665.84 53.7058 665.377 53.1492C664.966 52.6509 663.324 50.9225 662.98 50.564C662.96 50.5464 662.943 50.5246 662.932 50.5C662.92 50.4754 662.914 50.4487 662.914 50.4216C662.914 50.3377 662.963 50.2615 663.036 50.236H671.933V63.2356H678.773V50.2691H687.078V44.0008H660.319ZM719.98 51.8759L715.783 51.8784C715.783 51.8784 715.671 51.8454 715.671 51.7183L715.669 49.6008C715.669 49.4737 715.781 49.4407 715.781 49.4407H719.629C720.077 49.4407 720.981 49.6644 720.981 50.699C720.981 51.7335 719.98 51.8759 719.98 51.8759M725.516 56.4259C724.372 56.4209 724.291 55.966 724.291 55.8999C724.291 55.7829 724.433 55.7092 724.433 55.7092C724.863 55.5033 725.74 54.8194 725.74 54.8194C727.601 53.3706 727.825 51.3829 727.825 50.3178C727.825 49.25 727.664 47.3614 725.755 45.7067C723.846 44.0518 721.429 44.001 721.429 44.001H707.99V63.1265C707.99 63.1875 708.046 63.236 708.107 63.236H715.588V57.8747C715.588 57.7781 715.732 57.8747 715.732 57.8747L719.629 61.7868C721.015 63.1873 723.305 63.2356 723.305 63.2356H734.807V56.4263H725.516V56.4259ZM697.078 55.2201H694.264C694.16 55.2201 694.094 55.1082 694.094 55.0014C694.094 54.9608 695.591 50.1363 695.591 50.1363C695.645 49.9558 695.66 49.9505 695.67 49.9505H695.673C695.683 49.9505 695.698 49.9558 695.751 50.1363C695.751 50.1363 697.248 54.961 697.248 55.0014C697.248 55.1082 697.18 55.2201 697.078 55.2201ZM700.866 44.1703C700.852 44.1228 700.824 44.0807 700.785 44.0501C700.746 44.0195 700.699 44.002 700.65 44H690.317C690.215 44.0051 690.129 44.0737 690.101 44.1678C690.101 44.1678 684.394 63.0289 684.394 63.0645C684.394 63.1585 684.47 63.2348 684.564 63.2348H691.395C691.45 63.2172 691.491 63.1636 691.504 63.1052L692.299 60.5608C692.312 60.53 692.334 60.5035 692.361 60.4845C692.389 60.4656 692.421 60.455 692.454 60.454H698.753C698.787 60.4563 698.819 60.4677 698.847 60.4869C698.875 60.5062 698.897 60.5326 698.911 60.5634L699.725 63.1052C699.737 63.1638 699.778 63.217 699.831 63.2374L706.552 63.2348C706.574 63.2353 706.596 63.2313 706.617 63.2231C706.638 63.2149 706.657 63.2026 706.673 63.1869C706.688 63.1713 706.701 63.1526 706.71 63.132C706.718 63.1114 706.722 63.0893 706.722 63.067C706.722 63.0365 700.866 44.1703 700.866 44.1703Z" fill="#4765FF"/>
<rect x="765" y="0.5" width="127" height="127" rx="11.5" stroke="#4765FF"/>
<path d="M825.031 54H825.838C827.612 54.0538 829.439 54.43 830.998 55.3976C832.288 56.2039 833.256 57.3865 833.793 58.7841C834.169 59.6979 834.385 60.7192 834.438 61.6868H828.633C828.579 60.8805 828.31 60.0204 827.665 59.4829C827.02 58.8916 826.106 58.7303 825.246 58.7841C824.494 58.7841 823.741 59.0529 823.204 59.5904C822.559 60.2355 822.236 61.0955 822.075 61.9556C821.86 62.9769 821.86 64.052 821.967 65.0733C822.075 66.0946 822.29 67.1697 822.935 67.976C823.419 68.6211 824.118 68.9973 824.924 69.1048C825.73 69.2124 826.59 69.1586 827.343 68.7823C827.934 68.4598 828.364 67.9223 828.579 67.331C828.74 66.9547 828.794 66.5247 828.848 66.0946H834.6C834.492 67.761 834.008 69.4274 833.041 70.7712C832.127 72.0076 830.837 72.8676 829.385 73.4052C828.31 73.7814 827.128 73.9427 825.999 73.9965H825.085C823.526 73.9427 821.967 73.6202 820.57 72.9214C819.172 72.2226 818.043 71.1475 817.237 69.8036C816.269 68.191 815.839 66.2559 815.786 64.4283C815.678 62.3856 816.001 60.3967 816.914 58.6766C817.613 57.279 818.688 56.0964 820.032 55.3438C821.537 54.43 823.257 54 825.031 54Z" fill="#4765FF"/>
<path d="M794.284 54.8063C794.768 54.3225 795.467 54 796.219 54C796.972 54 797.724 54.2688 798.262 54.8063L801.541 58.0853L804.82 54.8063C805.304 54.3225 806.056 54 806.755 54C807.508 54 808.206 54.2688 808.744 54.8063L812.775 58.8379C813.313 59.3754 813.636 60.1817 813.582 60.9343C813.528 61.6331 813.259 62.2781 812.775 62.7619C809.013 66.4709 805.304 70.2337 801.541 73.9427C797.778 70.2337 794.069 66.4709 790.306 62.7619C789.823 62.2781 789.554 61.6331 789.5 60.988V60.558C789.554 59.9129 789.823 59.2679 790.306 58.7841C791.65 57.494 792.94 56.1502 794.284 54.8063Z" fill="#4765FF"/>
<path d="M833.201 54.4834H839.383C840.458 58.5687 841.479 62.6002 842.554 66.6855C843.683 62.6002 844.812 58.5687 845.941 54.4834H851.908C849.811 60.7726 847.661 67.0618 845.511 73.351H839.437C837.448 67.1156 835.351 60.8264 833.201 54.4834Z" fill="#4765FF"/>
<rect x="1" y="140.5" width="127" height="127" rx="11.5" stroke="#4765FF"/>
<path d="M57.9099 215.879H55.0961C54.9969 215.879 54.9257 215.768 54.9257 215.661C54.9257 215.623 56.423 210.796 56.423 210.796C56.4764 210.615 56.4815 210.61 56.5018 210.61H56.5044C56.5271 210.61 56.5298 210.615 56.583 210.796C56.583 210.796 58.0802 215.623 58.0802 215.661C58.0802 215.768 58.0038 215.879 57.9099 215.879ZM61.7051 204.835C61.6911 204.787 61.663 204.745 61.6244 204.713C61.5858 204.682 61.5385 204.663 61.489 204.659H51.156C51.1068 204.663 51.06 204.682 51.0214 204.713C50.9829 204.743 50.9545 204.785 50.9399 204.832C50.9399 204.832 45.2282 223.688 45.2282 223.724C45.2282 223.818 45.3019 223.894 45.3985 223.894H52.2287C52.2557 223.883 52.2796 223.865 52.2982 223.843C52.3168 223.82 52.3296 223.793 52.3355 223.764L53.131 221.223C53.1432 221.191 53.1645 221.164 53.1921 221.145C53.2196 221.125 53.2524 221.114 53.2861 221.113L59.5877 221.108C59.6561 221.113 59.7173 221.162 59.7428 221.223L60.5561 223.764C60.5688 223.823 60.6095 223.876 60.6629 223.897L67.3838 223.894C67.4776 223.894 67.5566 223.823 67.5566 223.729C67.5566 223.696 61.7051 204.835 61.7051 204.835ZM81.1763 212.533L76.9795 212.536C76.9795 212.536 76.8678 212.503 76.8678 212.376L76.8653 210.258C76.8653 210.131 76.9771 210.098 76.9771 210.098H80.8255C81.2729 210.098 82.1778 210.322 82.1778 211.357C82.1778 212.391 81.1763 212.533 81.1763 212.533ZM101.298 210.894H110.808V204.659H98.5808C97.4372 204.659 95.828 205.248 94.9053 205.932C93.9827 206.616 92.6481 208.174 92.6481 210.322C92.6481 212.47 93.9521 214.14 93.9521 214.14C94.6206 214.969 96.3035 216.695 96.3035 216.695C96.3416 216.735 96.3645 216.789 96.3645 216.85C96.3645 216.979 96.2602 217.084 96.1306 217.084H86.7126C85.5662 217.078 85.4874 216.624 85.4874 216.557C85.4874 216.44 85.6298 216.367 85.6298 216.367C86.0594 216.161 86.9362 215.477 86.9362 215.477C88.797 214.028 89.0209 212.04 89.0209 210.975C89.0209 209.908 88.8606 208.019 86.9516 206.364C85.0427 204.709 82.6253 204.664 82.6253 204.664H69.1859V223.784C69.1859 223.845 69.2418 223.893 69.3029 223.893H76.7839V218.53C76.7839 218.436 76.9286 218.53 76.9286 218.53L80.8255 222.445C82.2109 223.845 84.5012 223.893 84.5012 223.893L99.2342 223.891C101.748 223.891 103.146 222.523 103.53 222.142C103.911 221.758 105.185 220.327 105.185 217.956C105.185 215.586 104.102 214.374 103.639 213.817C103.228 213.319 101.586 211.58 101.242 211.219C101.222 211.202 101.205 211.181 101.194 211.157C101.182 211.133 101.176 211.106 101.176 211.08C101.176 210.996 101.225 210.917 101.298 210.894M41.8139 223.893C41.8648 223.893 41.9004 223.857 41.9156 223.801C41.9156 223.801 47.7036 204.79 47.7036 204.772C47.7036 204.722 47.6731 204.666 47.6248 204.661H40.4896C40.454 204.661 40.4311 204.689 40.4235 204.727C40.4235 204.729 38.9465 209.671 38.9465 209.673C38.9364 209.714 38.916 209.739 38.8804 209.739C38.8448 209.739 38.8143 209.704 38.8093 209.673L37.2639 204.724C37.2588 204.691 37.2334 204.661 37.1978 204.661L29.3178 204.658C29.3063 204.661 29.2958 204.667 29.287 204.675C29.2781 204.683 29.2713 204.693 29.2669 204.704L27.8816 209.671C27.8739 209.714 27.851 209.739 27.8129 209.739C27.7967 209.739 27.7812 209.733 27.7691 209.722C27.757 209.712 27.7491 209.697 27.7468 209.681L26.2775 204.719C26.2757 204.704 26.2691 204.69 26.2585 204.679C26.248 204.668 26.2341 204.661 26.219 204.658H18.6136C18.5837 204.659 18.5551 204.671 18.5342 204.692C18.5132 204.714 18.5016 204.742 18.5018 204.772C18.5018 204.783 18.5043 204.803 18.5043 204.803L24.3787 223.801C24.394 223.857 24.4296 223.893 24.4804 223.893L30.7973 223.896C30.8352 223.89 30.8735 223.847 30.8835 223.801C30.886 223.801 33.0823 216.732 33.0823 216.732C33.095 216.689 33.1128 216.664 33.1484 216.664C33.1865 216.664 33.207 216.694 33.217 216.73L35.3598 223.832C35.3661 223.85 35.3778 223.865 35.3933 223.876C35.4088 223.887 35.4273 223.893 35.4463 223.893H41.8139ZM36.3189 184.001C35.1725 184.001 33.5661 184.59 32.6434 185.274C31.7203 185.958 30.3862 187.516 30.3862 189.664C30.3862 191.812 31.69 193.482 31.69 193.482C32.3587 194.311 34.0413 196.049 34.0413 196.049C34.0795 196.09 34.1023 196.144 34.1023 196.202C34.1023 196.332 33.9981 196.438 33.8686 196.438H18.5V203.236H36.9723C39.4838 203.236 40.8842 201.868 41.2681 201.484C41.6495 201.103 42.9205 199.672 42.9205 197.3C42.9205 194.931 41.8402 193.706 41.3774 193.149C40.9656 192.651 39.3236 190.922 38.9804 190.564C38.9598 190.546 38.9433 190.525 38.9319 190.5C38.9205 190.475 38.9145 190.449 38.9143 190.422C38.9143 190.338 38.9626 190.261 39.0363 190.236H47.9331V203.236H54.7734V190.269H63.078V184.001H36.3189ZM95.98 191.876L91.7833 191.878C91.7833 191.878 91.6714 191.845 91.6714 191.718L91.6689 189.601C91.6689 189.474 91.7808 189.441 91.7808 189.441H95.6293C96.0766 189.441 96.9815 189.664 96.9815 190.699C96.9815 191.734 95.9802 191.876 95.9802 191.876M101.516 196.426C100.372 196.421 100.291 195.966 100.291 195.9C100.291 195.783 100.433 195.709 100.433 195.709C100.863 195.503 101.74 194.819 101.74 194.819C103.601 193.371 103.825 191.383 103.825 190.318C103.825 189.25 103.664 187.361 101.755 185.707C99.8463 184.052 97.4289 184.001 97.4289 184.001H83.9896V203.126C83.9896 203.187 84.0457 203.236 84.1067 203.236H91.5875V197.875C91.5875 197.778 91.7325 197.875 91.7325 197.875L95.6293 201.787C97.0145 203.187 99.3048 203.236 99.3048 203.236H110.807V196.426H101.516V196.426ZM73.0783 195.22H70.2643C70.16 195.22 70.0941 195.108 70.0941 195.001C70.0941 194.961 71.5912 190.136 71.5912 190.136C71.6446 189.956 71.6596 189.951 71.67 189.951H71.6726C71.6827 189.951 71.698 189.956 71.7514 190.136C71.7514 190.136 73.2484 194.961 73.2484 195.001C73.2484 195.108 73.18 195.22 73.0783 195.22ZM76.8656 184.17C76.8522 184.123 76.824 184.081 76.7852 184.05C76.7464 184.02 76.6989 184.002 76.6495 184H66.3167C66.2151 184.005 66.1286 184.074 66.1006 184.168C66.1006 184.168 60.394 203.029 60.394 203.064C60.394 203.159 60.4703 203.235 60.5641 203.235H67.3945C67.4505 203.217 67.4909 203.164 67.5036 203.105L68.2994 200.561C68.3122 200.53 68.3337 200.503 68.3612 200.485C68.3887 200.466 68.4211 200.455 68.4545 200.454H74.7533C74.787 200.456 74.8195 200.468 74.8472 200.487C74.875 200.506 74.897 200.533 74.9109 200.563L75.7245 203.105C75.737 203.164 75.7777 203.217 75.8311 203.237L82.552 203.235C82.5742 203.235 82.5964 203.231 82.6171 203.223C82.6379 203.215 82.6567 203.203 82.6726 203.187C82.6885 203.171 82.7011 203.153 82.7096 203.132C82.7181 203.111 82.7225 203.089 82.7223 203.067C82.7223 203.037 76.8656 184.17 76.8656 184.17Z" fill="#4765FF"/>
<rect x="141" y="140.5" width="127" height="127" rx="11.5" stroke="#4765FF"/>
<path d="M198.002 204.99C198.002 209.362 194.582 212.584 190.385 212.584C186.188 212.584 182.768 209.362 182.768 204.99C182.768 200.588 186.188 197.397 190.385 197.397C194.582 197.397 198.002 200.588 198.002 204.99ZM194.667 204.99C194.667 202.259 192.685 200.389 190.385 200.389C188.084 200.389 186.102 202.259 186.102 204.99C186.102 207.695 188.084 209.591 190.385 209.591C192.685 209.591 194.667 207.692 194.667 204.99Z" fill="#4765FF"/>
<path d="M214.435 204.99C214.435 209.362 211.015 212.584 206.818 212.584C202.621 212.584 199.201 209.362 199.201 204.99C199.201 200.591 202.621 197.397 206.818 197.397C211.015 197.397 214.435 200.588 214.435 204.99ZM211.101 204.99C211.101 202.259 209.119 200.389 206.818 200.389C204.518 200.389 202.536 202.259 202.536 204.99C202.536 207.695 204.518 209.591 206.818 209.591C209.119 209.591 211.101 207.692 211.101 204.99Z" fill="#4765FF"/>
<path d="M230.181 197.856V211.488C230.181 217.096 226.874 219.386 222.965 219.386C219.285 219.386 217.07 216.924 216.234 214.911L219.137 213.703C219.654 214.939 220.921 216.397 222.961 216.397C225.464 216.397 227.015 214.853 227.015 211.947V210.855H226.898C226.152 211.776 224.714 212.58 222.9 212.58C219.103 212.58 215.625 209.273 215.625 205.018C215.625 200.732 219.103 197.397 222.9 197.397C224.711 197.397 226.148 198.202 226.898 199.095H227.015V197.86H230.181V197.856ZM227.251 205.018C227.251 202.344 225.467 200.389 223.197 200.389C220.897 200.389 218.97 202.344 218.97 205.018C218.97 207.664 220.897 209.591 223.197 209.591C225.467 209.591 227.251 207.664 227.251 205.018Z" fill="#4765FF"/>
<path d="M235.403 189.866V212.118H232.15V189.866H235.403Z" fill="#4765FF"/>
<path d="M248.076 207.49L250.664 209.215C249.829 210.451 247.816 212.581 244.338 212.581C240.024 212.581 236.803 209.246 236.803 204.988C236.803 200.472 240.052 197.395 243.964 197.395C247.905 197.395 249.832 200.53 250.462 202.225L250.808 203.088L240.657 207.291C241.435 208.815 242.643 209.592 244.338 209.592C246.036 209.592 247.213 208.757 248.076 207.49ZM240.11 204.758L246.895 201.941C246.522 200.992 245.399 200.332 244.077 200.332C242.383 200.332 240.024 201.828 240.11 204.758Z" fill="#4765FF"/>
<path d="M170.458 203.015V199.794H181.313C181.419 200.355 181.474 201.019 181.474 201.738C181.474 204.155 180.814 207.144 178.684 209.273C176.613 211.43 173.967 212.58 170.461 212.58C163.964 212.58 158.5 207.288 158.5 200.79C158.5 194.293 163.964 189 170.461 189C174.056 189 176.616 190.41 178.54 192.249L176.267 194.522C174.888 193.228 173.019 192.221 170.458 192.221C165.713 192.221 162.002 196.045 162.002 200.79C162.002 205.535 165.713 209.359 170.458 209.359C173.535 209.359 175.288 208.123 176.411 207C177.322 206.089 177.921 204.789 178.157 203.012L170.458 203.015Z" fill="#4765FF"/>
<rect x="280.5" y="140" width="128" height="128" rx="12" fill="#4765FF"/>
<path fill-rule="evenodd" clip-rule="evenodd" d="M324.714 194.63C325.974 194.969 326.968 195.962 327.307 197.222C327.937 199.524 327.912 204.321 327.912 204.321C327.912 204.321 327.912 209.094 327.307 211.396C326.968 212.655 325.974 213.649 324.714 213.988C322.413 214.594 313.206 214.594 313.206 214.594C313.206 214.594 304.024 214.594 301.698 213.964C300.438 213.624 299.445 212.631 299.106 211.371C298.5 209.094 298.5 204.297 298.5 204.297C298.5 204.297 298.5 199.524 299.106 197.222C299.445 195.962 300.462 194.945 301.698 194.606C304 194 313.206 194 313.206 194C313.206 194 322.413 194 324.714 194.63ZM310.275 208.707V199.888L317.931 204.297L310.275 208.707Z" fill="#EDF5FF"/>
<path d="M341.212 212.752C340.631 212.365 340.219 211.759 339.977 210.911C339.734 210.087 339.613 208.973 339.613 207.616V205.751C339.613 204.37 339.759 203.255 340.025 202.407C340.316 201.559 340.752 200.953 341.333 200.566C341.939 200.178 342.714 199.984 343.684 199.984C344.628 199.984 345.404 200.178 345.985 200.566C346.567 200.953 346.979 201.583 347.245 202.407C347.512 203.231 347.657 204.345 347.657 205.751V207.616C347.657 208.997 347.536 210.087 347.269 210.935C347.003 211.759 346.591 212.389 346.009 212.777C345.428 213.164 344.628 213.358 343.635 213.358C342.618 213.334 341.794 213.14 341.212 212.752ZM344.483 210.717C344.653 210.305 344.725 209.603 344.725 208.658V204.636C344.725 203.715 344.653 203.037 344.483 202.601C344.313 202.165 344.047 201.971 343.635 201.971C343.247 201.971 342.957 202.189 342.811 202.601C342.642 203.037 342.569 203.715 342.569 204.636V208.658C342.569 209.603 342.642 210.305 342.811 210.717C342.957 211.129 343.247 211.347 343.659 211.347C344.047 211.347 344.313 211.153 344.483 210.717Z" fill="#EDF5FF"/>
<path d="M385.937 207.641V208.295C385.937 209.119 385.962 209.749 386.01 210.161C386.059 210.573 386.155 210.887 386.325 211.057C386.47 211.251 386.713 211.348 387.052 211.348C387.488 211.348 387.779 211.178 387.948 210.839C388.118 210.5 388.191 209.943 388.215 209.143L390.71 209.288C390.734 209.41 390.734 209.555 390.734 209.749C390.734 210.936 390.42 211.832 389.765 212.414C389.111 212.995 388.191 213.286 387.003 213.286C385.574 213.286 384.581 212.826 383.999 211.929C383.418 211.033 383.127 209.652 383.127 207.762V205.509C383.127 203.571 383.418 202.165 384.023 201.269C384.629 200.373 385.647 199.937 387.076 199.937C388.069 199.937 388.845 200.13 389.378 200.494C389.911 200.857 390.274 201.439 390.492 202.19C390.71 202.965 390.807 204.031 390.807 205.388V207.592H385.937V207.641ZM386.301 202.214C386.155 202.408 386.059 202.698 386.01 203.11C385.962 203.522 385.937 204.152 385.937 205V205.921H388.069V205C388.069 204.176 388.045 203.546 387.997 203.11C387.948 202.674 387.827 202.384 387.682 202.214C387.536 202.044 387.294 201.947 387.003 201.947C386.664 201.923 386.446 202.02 386.301 202.214Z" fill="#EDF5FF"/>
<path d="M334.139 207.398L330.844 195.454H333.727L334.89 200.857C335.181 202.189 335.399 203.328 335.544 204.273H335.617C335.714 203.595 335.932 202.48 336.271 200.881L337.482 195.454H340.365L337.022 207.398V213.116H334.163V207.398H334.139Z" fill="#EDF5FF"/>
<path d="M357.034 200.227V213.14H354.757L354.514 211.565H354.442C353.836 212.752 352.891 213.358 351.656 213.358C350.808 213.358 350.178 213.067 349.766 212.51C349.354 211.953 349.16 211.081 349.16 209.869V200.227H352.067V209.7C352.067 210.281 352.14 210.693 352.261 210.935C352.382 211.178 352.6 211.299 352.891 211.299C353.134 211.299 353.376 211.226 353.618 211.056C353.86 210.911 354.03 210.717 354.127 210.475V200.227H357.034Z" fill="#EDF5FF"/>
<path d="M371.935 200.227V213.14H369.657L369.415 211.565H369.342C368.736 212.752 367.792 213.358 366.556 213.358C365.708 213.358 365.078 213.067 364.666 212.51C364.254 211.953 364.061 211.081 364.061 209.869V200.227H366.968V209.7C366.968 210.281 367.041 210.693 367.162 210.935C367.283 211.178 367.501 211.299 367.792 211.299C368.034 211.299 368.276 211.226 368.518 211.056C368.761 210.911 368.93 210.717 369.027 210.475V200.227H371.935Z" fill="#EDF5FF"/>
<path d="M364.933 197.804H362.05V213.116H359.215V197.804H356.332V195.454H364.933V197.804Z" fill="#EDF5FF"/>
<path d="M381.552 202.286C381.382 201.462 381.091 200.881 380.704 200.518C380.316 200.154 379.759 199.96 379.081 199.96C378.548 199.96 378.039 200.106 377.578 200.421C377.118 200.711 376.755 201.123 376.512 201.608H376.488V194.8H373.678V213.116H376.076L376.367 211.905H376.44C376.658 212.341 376.997 212.68 377.457 212.946C377.918 213.189 378.402 213.334 378.959 213.334C379.953 213.334 380.655 212.874 381.116 211.977C381.576 211.081 381.818 209.651 381.818 207.737V205.702C381.794 204.224 381.721 203.086 381.552 202.286ZM378.887 207.544C378.887 208.488 378.838 209.215 378.766 209.748C378.693 210.281 378.548 210.669 378.378 210.887C378.184 211.105 377.942 211.226 377.651 211.226C377.409 211.226 377.191 211.178 376.997 211.057C376.803 210.935 376.634 210.766 376.512 210.548V203.231C376.609 202.892 376.779 202.601 377.021 202.359C377.263 202.141 377.53 202.02 377.796 202.02C378.087 202.02 378.329 202.141 378.475 202.359C378.644 202.601 378.741 202.989 378.814 203.522C378.887 204.079 378.911 204.854 378.911 205.848V207.544H378.887Z" fill="#EDF5FF"/>
<rect x="421" y="140.5" width="127" height="127" rx="11.5" stroke="#4765FF"/>
<path d="M452.6 214.517C451.276 214.742 449.929 214.81 448.536 214.989L444.286 202.95V215.506C442.962 215.641 441.754 215.82 440.5 216V193H444.03L448.861 206.05V193H452.6V214.517ZM459.916 201.423C461.356 201.423 463.563 201.355 464.886 201.355V204.949C463.237 204.949 461.31 204.949 459.916 205.017V210.362C462.099 210.228 464.283 210.048 466.489 209.98V213.439L456.2 214.225V193H466.489V196.594H459.916V201.423ZM480.308 196.594H476.452V213.125C475.198 213.125 473.944 213.125 472.737 213.17V196.594H468.881V193H480.308L480.308 196.594ZM486.346 201.176H491.433V204.77H486.346V212.923H482.7V193H493.082V196.594H486.346V201.176ZM499.12 209.778C501.234 209.823 503.37 209.981 505.437 210.093V213.642C502.116 213.439 498.795 213.237 495.404 213.17V193H499.12V209.778ZM508.573 213.889C509.757 213.956 511.011 214.024 512.219 214.158V193H508.573V213.889ZM528.5 193L523.785 203.939L528.5 216C527.106 215.82 525.713 215.573 524.319 215.349L521.649 208.7L518.931 214.81C517.584 214.585 516.284 214.517 514.937 214.338L519.721 203.804L515.401 193H519.396L521.834 199.042L524.436 193H528.5Z" fill="#4765FF"/>
<rect x="561" y="140.5" width="127" height="127" rx="11.5" stroke="#4765FF"/>
<path d="M621.031 194H621.838C623.612 194.054 625.439 194.43 626.998 195.398C628.288 196.204 629.256 197.386 629.793 198.784C630.169 199.698 630.385 200.719 630.438 201.687H624.633C624.579 200.88 624.31 200.02 623.665 199.483C623.02 198.892 622.106 198.73 621.246 198.784C620.494 198.784 619.741 199.053 619.204 199.59C618.559 200.235 618.236 201.096 618.075 201.956C617.86 202.977 617.86 204.052 617.967 205.073C618.075 206.095 618.29 207.17 618.935 207.976C619.419 208.621 620.118 208.997 620.924 209.105C621.73 209.212 622.59 209.159 623.343 208.782C623.934 208.46 624.364 207.922 624.579 207.331C624.74 206.955 624.794 206.525 624.848 206.095H630.6C630.492 207.761 630.008 209.427 629.041 210.771C628.127 212.008 626.837 212.868 625.385 213.405C624.31 213.781 623.128 213.943 621.999 213.996H621.085C619.526 213.943 617.967 213.62 616.57 212.921C615.172 212.223 614.043 211.147 613.237 209.804C612.269 208.191 611.839 206.256 611.786 204.428C611.678 202.386 612.001 200.397 612.914 198.677C613.613 197.279 614.688 196.096 616.032 195.344C617.537 194.43 619.257 194 621.031 194Z" fill="#4765FF"/>
<path d="M654.842 194H655.702C657.422 194.054 659.196 194.376 660.648 195.344C661.4 195.828 662.045 196.473 662.475 197.225C662.959 198.085 663.228 198.999 663.335 199.967H657.584C657.53 199.537 657.315 199.16 657.046 198.892C656.67 198.515 656.079 198.408 655.541 198.354C655.057 198.3 654.52 198.354 654.036 198.462C653.713 198.569 653.391 198.784 653.283 199.16C653.176 199.483 653.176 199.913 653.391 200.182C653.552 200.45 653.875 200.612 654.197 200.719C654.735 200.934 655.272 201.042 655.81 201.203C656.939 201.526 658.067 201.741 659.196 202.063C659.949 202.278 660.648 202.547 661.293 202.923C661.991 203.353 662.637 203.944 663.12 204.643C663.604 205.342 663.819 206.202 663.873 207.062C663.927 208.084 663.765 209.159 663.335 210.126C663.013 210.879 662.475 211.578 661.83 212.115C660.594 213.083 659.089 213.566 657.53 213.781C656.939 213.835 656.401 213.889 655.81 213.889H654.95C653.552 213.835 652.155 213.62 650.864 213.029C649.628 212.491 648.499 211.524 647.854 210.341C647.37 209.481 647.102 208.46 646.994 207.492H652.907C653.015 207.922 653.176 208.406 653.498 208.729C653.767 208.997 654.09 209.212 654.466 209.266C654.95 209.374 655.487 209.427 655.971 209.374C656.455 209.32 656.992 209.266 657.422 208.997C657.691 208.836 657.906 208.514 657.96 208.191C658.014 207.869 657.96 207.492 657.691 207.223C657.476 206.955 657.1 206.847 656.777 206.74C656.186 206.578 655.649 206.417 655.057 206.256C653.982 205.987 652.961 205.718 651.886 205.342C651.133 205.073 650.381 204.858 649.682 204.428C648.929 203.944 648.284 203.299 647.854 202.493C647.424 201.633 647.263 200.612 647.263 199.644C647.317 198.73 647.532 197.87 647.962 197.064C648.392 196.311 649.037 195.666 649.789 195.183C651.294 194.323 653.068 194.054 654.842 194Z" fill="#4765FF"/>
<path d="M590.284 194.806C590.768 194.323 591.467 194 592.219 194C592.972 194 593.724 194.269 594.262 194.806L597.541 198.085L600.82 194.806C601.304 194.323 602.056 194 602.755 194C603.508 194 604.206 194.269 604.744 194.806L608.775 198.838C609.313 199.375 609.636 200.182 609.582 200.934C609.528 201.633 609.259 202.278 608.775 202.762C605.013 206.471 601.304 210.234 597.541 213.943C593.778 210.234 590.069 206.471 586.306 202.762C585.823 202.278 585.554 201.633 585.5 200.988V200.558C585.554 199.913 585.823 199.268 586.306 198.784C587.65 197.494 588.94 196.15 590.284 194.806Z" fill="#4765FF"/>
<path d="M629.201 194.483H635.383C636.458 198.569 637.479 202.6 638.554 206.686C639.683 202.6 640.812 198.569 641.941 194.483H647.908C645.811 200.773 643.661 207.062 641.511 213.351H635.437C633.448 207.116 631.351 200.826 629.201 194.483Z" fill="#4765FF"/>
<rect x="701" y="140.5" width="127" height="127" rx="11.5" stroke="#4765FF"/>
<path d="M757.91 215.879H755.096C754.997 215.879 754.926 215.768 754.926 215.661C754.926 215.623 756.423 210.796 756.423 210.796C756.476 210.615 756.481 210.61 756.502 210.61H756.504C756.527 210.61 756.53 210.615 756.583 210.796C756.583 210.796 758.08 215.623 758.08 215.661C758.08 215.768 758.004 215.879 757.91 215.879ZM761.705 204.835C761.691 204.787 761.663 204.745 761.624 204.713C761.586 204.682 761.539 204.663 761.489 204.659H751.156C751.107 204.663 751.06 204.682 751.021 204.713C750.983 204.743 750.955 204.785 750.94 204.832C750.94 204.832 745.228 223.688 745.228 223.724C745.228 223.818 745.302 223.894 745.398 223.894H752.229C752.256 223.883 752.28 223.865 752.298 223.843C752.317 223.82 752.33 223.793 752.335 223.764L753.131 221.223C753.143 221.191 753.164 221.164 753.192 221.145C753.22 221.125 753.252 221.114 753.286 221.113L759.588 221.108C759.656 221.113 759.717 221.162 759.743 221.223L760.556 223.764C760.569 223.823 760.61 223.876 760.663 223.897L767.384 223.894C767.478 223.894 767.557 223.823 767.557 223.729C767.557 223.696 761.705 204.835 761.705 204.835ZM781.176 212.533L776.979 212.536C776.979 212.536 776.868 212.503 776.868 212.376L776.865 210.258C776.865 210.131 776.977 210.098 776.977 210.098H780.825C781.273 210.098 782.178 210.322 782.178 211.357C782.178 212.391 781.176 212.533 781.176 212.533ZM801.298 210.894H810.808V204.659H798.581C797.437 204.659 795.828 205.248 794.905 205.932C793.983 206.616 792.648 208.174 792.648 210.322C792.648 212.47 793.952 214.14 793.952 214.14C794.621 214.969 796.303 216.695 796.303 216.695C796.342 216.735 796.364 216.789 796.364 216.85C796.364 216.979 796.26 217.084 796.131 217.084H786.713C785.566 217.078 785.487 216.624 785.487 216.557C785.487 216.44 785.63 216.367 785.63 216.367C786.059 216.161 786.936 215.477 786.936 215.477C788.797 214.028 789.021 212.04 789.021 210.975C789.021 209.908 788.861 208.019 786.952 206.364C785.043 204.709 782.625 204.664 782.625 204.664H769.186V223.784C769.186 223.845 769.242 223.893 769.303 223.893H776.784V218.53C776.784 218.436 776.929 218.53 776.929 218.53L780.825 222.445C782.211 223.845 784.501 223.893 784.501 223.893L799.234 223.891C801.748 223.891 803.146 222.523 803.53 222.142C803.911 221.758 805.185 220.327 805.185 217.956C805.185 215.586 804.102 214.374 803.639 213.817C803.228 213.319 801.586 211.58 801.242 211.219C801.222 211.202 801.205 211.181 801.194 211.157C801.182 211.133 801.176 211.106 801.176 211.08C801.176 210.996 801.225 210.917 801.298 210.894M741.814 223.893C741.865 223.893 741.9 223.857 741.916 223.801C741.916 223.801 747.704 204.79 747.704 204.772C747.704 204.722 747.673 204.666 747.625 204.661H740.49C740.454 204.661 740.431 204.689 740.423 204.727C740.423 204.729 738.947 209.671 738.947 209.673C738.936 209.714 738.916 209.739 738.88 209.739C738.845 209.739 738.814 209.704 738.809 209.673L737.264 204.724C737.259 204.691 737.233 204.661 737.198 204.661L729.318 204.658C729.306 204.661 729.296 204.667 729.287 204.675C729.278 204.683 729.271 204.693 729.267 204.704L727.882 209.671C727.874 209.714 727.851 209.739 727.813 209.739C727.797 209.739 727.781 209.733 727.769 209.722C727.757 209.712 727.749 209.697 727.747 209.681L726.278 204.719C726.276 204.704 726.269 204.69 726.259 204.679C726.248 204.668 726.234 204.661 726.219 204.658H718.614C718.584 204.659 718.555 204.671 718.534 204.692C718.513 204.714 718.502 204.742 718.502 204.772C718.502 204.783 718.504 204.803 718.504 204.803L724.379 223.801C724.394 223.857 724.43 223.893 724.48 223.893L730.797 223.896C730.835 223.89 730.874 223.847 730.884 223.801C730.886 223.801 733.082 216.732 733.082 216.732C733.095 216.689 733.113 216.664 733.148 216.664C733.187 216.664 733.207 216.694 733.217 216.73L735.36 223.832C735.366 223.85 735.378 223.865 735.393 223.876C735.409 223.887 735.427 223.893 735.446 223.893H741.814ZM736.319 184.001C735.172 184.001 733.566 184.59 732.643 185.274C731.72 185.958 730.386 187.516 730.386 189.664C730.386 191.812 731.69 193.482 731.69 193.482C732.359 194.311 734.041 196.049 734.041 196.049C734.079 196.09 734.102 196.144 734.102 196.202C734.102 196.332 733.998 196.438 733.869 196.438H718.5V203.236H736.972C739.484 203.236 740.884 201.868 741.268 201.484C741.649 201.103 742.92 199.672 742.92 197.3C742.92 194.931 741.84 193.706 741.377 193.149C740.966 192.651 739.324 190.922 738.98 190.564C738.96 190.546 738.943 190.525 738.932 190.5C738.92 190.475 738.914 190.449 738.914 190.422C738.914 190.338 738.963 190.261 739.036 190.236H747.933V203.236H754.773V190.269H763.078V184.001H736.319ZM795.98 191.876L791.783 191.878C791.783 191.878 791.671 191.845 791.671 191.718L791.669 189.601C791.669 189.474 791.781 189.441 791.781 189.441H795.629C796.077 189.441 796.981 189.664 796.981 190.699C796.981 191.734 795.98 191.876 795.98 191.876M801.516 196.426C800.372 196.421 800.291 195.966 800.291 195.9C800.291 195.783 800.433 195.709 800.433 195.709C800.863 195.503 801.74 194.819 801.74 194.819C803.601 193.371 803.825 191.383 803.825 190.318C803.825 189.25 803.664 187.361 801.755 185.707C799.846 184.052 797.429 184.001 797.429 184.001H783.99V203.126C783.99 203.187 784.046 203.236 784.107 203.236H791.588V197.875C791.588 197.778 791.732 197.875 791.732 197.875L795.629 201.787C797.015 203.187 799.305 203.236 799.305 203.236H810.807V196.426H801.516V196.426ZM773.078 195.22H770.264C770.16 195.22 770.094 195.108 770.094 195.001C770.094 194.961 771.591 190.136 771.591 190.136C771.645 189.956 771.66 189.951 771.67 189.951H771.673C771.683 189.951 771.698 189.956 771.751 190.136C771.751 190.136 773.248 194.961 773.248 195.001C773.248 195.108 773.18 195.22 773.078 195.22ZM776.866 184.17C776.852 184.123 776.824 184.081 776.785 184.05C776.746 184.02 776.699 184.002 776.65 184H766.317C766.215 184.005 766.129 184.074 766.101 184.168C766.101 184.168 760.394 203.029 760.394 203.064C760.394 203.159 760.47 203.235 760.564 203.235H767.395C767.45 203.217 767.491 203.164 767.504 203.105L768.299 200.561C768.312 200.53 768.334 200.503 768.361 200.485C768.389 200.466 768.421 200.455 768.454 200.454H774.753C774.787 200.456 774.819 200.468 774.847 200.487C774.875 200.506 774.897 200.533 774.911 200.563L775.725 203.105C775.737 203.164 775.778 203.217 775.831 203.237L782.552 203.235C782.574 203.235 782.596 203.231 782.617 203.223C782.638 203.215 782.657 203.203 782.673 203.187C782.688 203.171 782.701 203.153 782.71 203.132C782.718 203.111 782.722 203.089 782.722 203.067C782.722 203.037 776.866 184.17 776.866 184.17Z" fill="#4765FF"/>
<rect x="65" y="280.5" width="127" height="127" rx="11.5" stroke="#4765FF"/>
<path d="M96.6003 354.517C95.2765 354.742 93.9294 354.81 92.5359 354.989L88.2856 342.95V355.506C86.9619 355.641 85.7542 355.82 84.5 356V333H88.0303L92.861 346.05V333H96.6003V354.517ZM103.916 341.423C105.356 341.423 107.563 341.355 108.886 341.355V344.949C107.237 344.949 105.31 344.949 103.916 345.017V350.362C106.099 350.228 108.283 350.048 110.489 349.98V353.439L100.2 354.225V333H110.489V336.594H103.916V341.423ZM124.308 336.594H120.452V353.125C119.198 353.125 117.944 353.125 116.737 353.17V336.594H112.881V333H124.308L124.308 336.594ZM130.346 341.176H135.433V344.77H130.346V352.923H126.7V333H137.082V336.594H130.346V341.176ZM143.12 349.778C145.234 349.823 147.37 349.981 149.437 350.093V353.642C146.116 353.439 142.795 353.237 139.404 353.17V333H143.12V349.778ZM152.573 353.889C153.757 353.956 155.011 354.024 156.219 354.158V333H152.573V353.889ZM172.5 333L167.785 343.939L172.5 356C171.106 355.82 169.713 355.573 168.319 355.349L165.649 348.7L162.931 354.81C161.584 354.585 160.284 354.517 158.937 354.338L163.721 343.804L159.401 333H163.396L165.834 339.042L168.436 333H172.5Z" fill="#4765FF"/>
<rect x="205" y="280.5" width="127" height="127" rx="11.5" stroke="#4765FF"/>
<path d="M262.002 344.99C262.002 349.362 258.582 352.584 254.385 352.584C250.188 352.584 246.768 349.362 246.768 344.99C246.768 340.588 250.188 337.397 254.385 337.397C258.582 337.397 262.002 340.588 262.002 344.99ZM258.667 344.99C258.667 342.259 256.685 340.389 254.385 340.389C252.084 340.389 250.102 342.259 250.102 344.99C250.102 347.695 252.084 349.591 254.385 349.591C256.685 349.591 258.667 347.692 258.667 344.99Z" fill="#4765FF"/>
<path d="M278.435 344.99C278.435 349.362 275.015 352.584 270.818 352.584C266.621 352.584 263.201 349.362 263.201 344.99C263.201 340.591 266.621 337.397 270.818 337.397C275.015 337.397 278.435 340.588 278.435 344.99ZM275.101 344.99C275.101 342.259 273.119 340.389 270.818 340.389C268.518 340.389 266.536 342.259 266.536 344.99C266.536 347.695 268.518 349.591 270.818 349.591C273.119 349.591 275.101 347.692 275.101 344.99Z" fill="#4765FF"/>
<path d="M294.181 337.856V351.488C294.181 357.096 290.874 359.386 286.965 359.386C283.285 359.386 281.07 356.924 280.234 354.911L283.137 353.703C283.654 354.939 284.921 356.397 286.961 356.397C289.464 356.397 291.015 354.853 291.015 351.947V350.855H290.898C290.152 351.776 288.714 352.58 286.9 352.58C283.103 352.58 279.625 349.273 279.625 345.018C279.625 340.732 283.103 337.397 286.9 337.397C288.711 337.397 290.148 338.202 290.898 339.095H291.015V337.86H294.181V337.856ZM291.251 345.018C291.251 342.344 289.467 340.389 287.197 340.389C284.897 340.389 282.97 342.344 282.97 345.018C282.97 347.664 284.897 349.591 287.197 349.591C289.467 349.591 291.251 347.664 291.251 345.018Z" fill="#4765FF"/>
<path d="M299.403 329.866V352.118H296.15V329.866H299.403Z" fill="#4765FF"/>
<path d="M312.076 347.49L314.664 349.215C313.829 350.451 311.816 352.581 308.338 352.581C304.024 352.581 300.803 349.246 300.803 344.988C300.803 340.472 304.052 337.395 307.964 337.395C311.905 337.395 313.832 340.53 314.462 342.225L314.808 343.088L304.657 347.291C305.435 348.815 306.643 349.592 308.338 349.592C310.036 349.592 311.213 348.757 312.076 347.49ZM304.11 344.758L310.895 341.941C310.522 340.992 309.399 340.332 308.077 340.332C306.383 340.332 304.024 341.828 304.11 344.758Z" fill="#4765FF"/>
<path d="M234.458 343.015V339.794H245.313C245.419 340.355 245.474 341.019 245.474 341.738C245.474 344.155 244.814 347.144 242.684 349.273C240.613 351.43 237.967 352.58 234.461 352.58C227.964 352.58 222.5 347.288 222.5 340.79C222.5 334.293 227.964 329 234.461 329C238.056 329 240.616 330.41 242.54 332.249L240.267 334.522C238.888 333.228 237.019 332.221 234.458 332.221C229.713 332.221 226.002 336.045 226.002 340.79C226.002 345.535 229.713 349.359 234.458 349.359C237.535 349.359 239.288 348.123 240.411 347C241.322 346.089 241.921 344.789 242.157 343.012L234.458 343.015Z" fill="#4765FF"/>
<rect x="345" y="280.5" width="127" height="127" rx="11.5" stroke="#4765FF"/>
<path d="M405.031 334H405.838C407.612 334.054 409.439 334.43 410.998 335.398C412.288 336.204 413.256 337.386 413.793 338.784C414.17 339.698 414.385 340.719 414.438 341.687H408.633C408.579 340.88 408.31 340.02 407.665 339.483C407.02 338.892 406.106 338.73 405.246 338.784C404.494 338.784 403.741 339.053 403.204 339.59C402.559 340.235 402.236 341.096 402.075 341.956C401.86 342.977 401.86 344.052 401.967 345.073C402.075 346.095 402.29 347.17 402.935 347.976C403.419 348.621 404.118 348.997 404.924 349.105C405.73 349.212 406.59 349.159 407.343 348.782C407.934 348.46 408.364 347.922 408.579 347.331C408.74 346.955 408.794 346.525 408.848 346.095H414.6C414.492 347.761 414.008 349.427 413.041 350.771C412.127 352.008 410.837 352.868 409.385 353.405C408.31 353.781 407.128 353.943 405.999 353.996H405.085C403.526 353.943 401.967 353.62 400.57 352.921C399.172 352.223 398.043 351.147 397.237 349.804C396.269 348.191 395.839 346.256 395.786 344.428C395.678 342.386 396.001 340.397 396.915 338.677C397.613 337.279 398.688 336.096 400.032 335.344C401.537 334.43 403.257 334 405.031 334Z" fill="#4765FF"/>
<path d="M438.842 334H439.702C441.422 334.054 443.196 334.376 444.648 335.344C445.4 335.828 446.045 336.473 446.475 337.225C446.959 338.085 447.228 338.999 447.335 339.967H441.584C441.53 339.537 441.315 339.16 441.046 338.892C440.67 338.515 440.079 338.408 439.541 338.354C439.057 338.3 438.52 338.354 438.036 338.462C437.713 338.569 437.391 338.784 437.283 339.16C437.176 339.483 437.176 339.913 437.391 340.182C437.552 340.45 437.875 340.612 438.197 340.719C438.735 340.934 439.272 341.042 439.81 341.203C440.939 341.526 442.067 341.741 443.196 342.063C443.949 342.278 444.648 342.547 445.293 342.923C445.991 343.353 446.637 343.944 447.12 344.643C447.604 345.342 447.819 346.202 447.873 347.062C447.927 348.084 447.765 349.159 447.335 350.126C447.013 350.879 446.475 351.578 445.83 352.115C444.594 353.083 443.089 353.566 441.53 353.781C440.939 353.835 440.401 353.889 439.81 353.889H438.95C437.552 353.835 436.155 353.62 434.864 353.029C433.628 352.491 432.499 351.524 431.854 350.341C431.37 349.481 431.102 348.46 430.994 347.492H436.907C437.015 347.922 437.176 348.406 437.498 348.729C437.767 348.997 438.09 349.212 438.466 349.266C438.95 349.374 439.487 349.427 439.971 349.374C440.455 349.32 440.992 349.266 441.422 348.997C441.691 348.836 441.906 348.514 441.96 348.191C442.014 347.869 441.96 347.492 441.691 347.223C441.476 346.955 441.1 346.847 440.777 346.74C440.186 346.578 439.649 346.417 439.057 346.256C437.982 345.987 436.961 345.718 435.886 345.342C435.133 345.073 434.381 344.858 433.682 344.428C432.929 343.944 432.284 343.299 431.854 342.493C431.424 341.633 431.263 340.612 431.263 339.644C431.317 338.73 431.532 337.87 431.962 337.064C432.392 336.311 433.037 335.666 433.789 335.183C435.294 334.323 437.068 334.054 438.842 334Z" fill="#4765FF"/>
<path d="M374.284 334.806C374.768 334.323 375.467 334 376.219 334C376.972 334 377.724 334.269 378.262 334.806L381.541 338.085L384.82 334.806C385.304 334.323 386.056 334 386.755 334C387.508 334 388.206 334.269 388.744 334.806L392.775 338.838C393.313 339.375 393.636 340.182 393.582 340.934C393.528 341.633 393.259 342.278 392.775 342.762C389.013 346.471 385.304 350.234 381.541 353.943C377.778 350.234 374.069 346.471 370.306 342.762C369.823 342.278 369.554 341.633 369.5 340.988V340.558C369.554 339.913 369.823 339.268 370.306 338.784C371.65 337.494 372.94 336.15 374.284 334.806Z" fill="#4765FF"/>
<path d="M413.201 334.483H419.383C420.458 338.569 421.479 342.6 422.554 346.686C423.683 342.6 424.812 338.569 425.941 334.483H431.908C429.811 340.773 427.661 347.062 425.511 353.351H419.437C417.448 347.116 415.351 340.826 413.201 334.483Z" fill="#4765FF"/>
<rect x="485" y="280.5" width="127" height="127" rx="11.5" stroke="#4765FF"/>
<path fill-rule="evenodd" clip-rule="evenodd" d="M528.714 334.63C529.974 334.969 530.968 335.962 531.307 337.222C531.937 339.524 531.912 344.321 531.912 344.321C531.912 344.321 531.912 349.094 531.307 351.396C530.968 352.655 529.974 353.649 528.714 353.988C526.413 354.594 517.206 354.594 517.206 354.594C517.206 354.594 508.024 354.594 505.698 353.964C504.438 353.624 503.445 352.631 503.106 351.371C502.5 349.094 502.5 344.297 502.5 344.297C502.5 344.297 502.5 339.524 503.106 337.222C503.445 335.962 504.462 334.945 505.698 334.606C508 334 517.206 334 517.206 334C517.206 334 526.413 334 528.714 334.63ZM514.275 348.707V339.888L521.931 344.297L514.275 348.707Z" fill="#4765FF"/>
<path d="M545.212 352.752C544.631 352.365 544.219 351.759 543.977 350.911C543.734 350.087 543.613 348.973 543.613 347.616V345.751C543.613 344.37 543.759 343.255 544.025 342.407C544.316 341.559 544.752 340.953 545.333 340.566C545.939 340.178 546.714 339.984 547.684 339.984C548.628 339.984 549.404 340.178 549.985 340.566C550.567 340.953 550.979 341.583 551.245 342.407C551.512 343.231 551.657 344.345 551.657 345.751V347.616C551.657 348.997 551.536 350.087 551.269 350.935C551.003 351.759 550.591 352.389 550.009 352.777C549.428 353.164 548.628 353.358 547.635 353.358C546.618 353.334 545.794 353.14 545.212 352.752ZM548.483 350.717C548.653 350.305 548.725 349.603 548.725 348.658V344.636C548.725 343.715 548.653 343.037 548.483 342.601C548.313 342.165 548.047 341.971 547.635 341.971C547.247 341.971 546.957 342.189 546.811 342.601C546.642 343.037 546.569 343.715 546.569 344.636V348.658C546.569 349.603 546.642 350.305 546.811 350.717C546.957 351.129 547.247 351.347 547.659 351.347C548.047 351.347 548.313 351.153 548.483 350.717Z" fill="#4765FF"/>
<path d="M589.937 347.641V348.295C589.937 349.119 589.962 349.749 590.01 350.161C590.059 350.573 590.155 350.887 590.325 351.057C590.47 351.251 590.713 351.348 591.052 351.348C591.488 351.348 591.779 351.178 591.948 350.839C592.118 350.5 592.191 349.943 592.215 349.143L594.71 349.288C594.734 349.41 594.734 349.555 594.734 349.749C594.734 350.936 594.42 351.832 593.765 352.414C593.111 352.995 592.191 353.286 591.003 353.286C589.574 353.286 588.581 352.826 587.999 351.929C587.418 351.033 587.127 349.652 587.127 347.762V345.509C587.127 343.571 587.418 342.165 588.023 341.269C588.629 340.373 589.647 339.937 591.076 339.937C592.069 339.937 592.845 340.13 593.378 340.494C593.911 340.857 594.274 341.439 594.492 342.19C594.71 342.965 594.807 344.031 594.807 345.388V347.592H589.937V347.641ZM590.301 342.214C590.155 342.408 590.059 342.698 590.01 343.11C589.962 343.522 589.937 344.152 589.937 345V345.921H592.069V345C592.069 344.176 592.045 343.546 591.997 343.11C591.948 342.674 591.827 342.384 591.682 342.214C591.536 342.044 591.294 341.947 591.003 341.947C590.664 341.923 590.446 342.02 590.301 342.214Z" fill="#4765FF"/>
<path d="M538.139 347.398L534.844 335.454H537.727L538.89 340.857C539.181 342.189 539.399 343.328 539.544 344.273H539.617C539.714 343.595 539.932 342.48 540.271 340.881L541.482 335.454H544.365L541.022 347.398V353.116H538.163V347.398H538.139Z" fill="#4765FF"/>
<path d="M561.034 340.227V353.14H558.757L558.514 351.565H558.442C557.836 352.752 556.891 353.358 555.656 353.358C554.808 353.358 554.178 353.067 553.766 352.51C553.354 351.953 553.16 351.081 553.16 349.869V340.227H556.067V349.7C556.067 350.281 556.14 350.693 556.261 350.935C556.382 351.178 556.6 351.299 556.891 351.299C557.134 351.299 557.376 351.226 557.618 351.056C557.86 350.911 558.03 350.717 558.127 350.475V340.227H561.034Z" fill="#4765FF"/>
<path d="M575.935 340.227V353.14H573.657L573.415 351.565H573.342C572.736 352.752 571.792 353.358 570.556 353.358C569.708 353.358 569.078 353.067 568.666 352.51C568.254 351.953 568.061 351.081 568.061 349.869V340.227H570.968V349.7C570.968 350.281 571.041 350.693 571.162 350.935C571.283 351.178 571.501 351.299 571.792 351.299C572.034 351.299 572.276 351.226 572.518 351.056C572.761 350.911 572.93 350.717 573.027 350.475V340.227H575.935Z" fill="#4765FF"/>
<path d="M568.933 337.804H566.05V353.116H563.215V337.804H560.332V335.454H568.933V337.804Z" fill="#4765FF"/>
<path d="M585.552 342.286C585.382 341.462 585.091 340.881 584.704 340.518C584.316 340.154 583.759 339.96 583.081 339.96C582.548 339.96 582.039 340.106 581.578 340.421C581.118 340.711 580.755 341.123 580.512 341.608H580.488V334.8H577.678V353.116H580.076L580.367 351.905H580.44C580.658 352.341 580.997 352.68 581.457 352.946C581.918 353.189 582.402 353.334 582.959 353.334C583.953 353.334 584.655 352.874 585.116 351.977C585.576 351.081 585.818 349.651 585.818 347.737V345.702C585.794 344.224 585.721 343.086 585.552 342.286ZM582.887 347.544C582.887 348.488 582.838 349.215 582.766 349.748C582.693 350.281 582.548 350.669 582.378 350.887C582.184 351.105 581.942 351.226 581.651 351.226C581.409 351.226 581.191 351.178 580.997 351.057C580.803 350.935 580.634 350.766 580.512 350.548V343.231C580.609 342.892 580.779 342.601 581.021 342.359C581.263 342.141 581.53 342.02 581.796 342.02C582.087 342.02 582.329 342.141 582.475 342.359C582.644 342.601 582.741 342.989 582.814 343.522C582.887 344.079 582.911 344.854 582.911 345.848V347.544H582.887Z" fill="#4765FF"/>
<rect x="625" y="280.5" width="127" height="127" rx="11.5" stroke="#4765FF"/>
<path d="M656.6 354.517C655.276 354.742 653.929 354.81 652.536 354.989L648.286 342.95V355.506C646.962 355.641 645.754 355.82 644.5 356V333H648.03L652.861 346.05V333H656.6V354.517ZM663.916 341.423C665.356 341.423 667.563 341.355 668.886 341.355V344.949C667.237 344.949 665.31 344.949 663.916 345.017V350.362C666.099 350.228 668.283 350.048 670.489 349.98V353.439L660.2 354.225V333H670.489V336.594H663.916V341.423ZM684.308 336.594H680.452V353.125C679.198 353.125 677.944 353.125 676.737 353.17V336.594H672.881V333H684.308L684.308 336.594ZM690.346 341.176H695.433V344.77H690.346V352.923H686.7V333H697.082V336.594H690.346V341.176ZM703.12 349.778C705.234 349.823 707.37 349.981 709.437 350.093V353.642C706.116 353.439 702.795 353.237 699.404 353.17V333H703.12V349.778ZM712.573 353.889C713.757 353.956 715.011 354.024 716.219 354.158V333H712.573V353.889ZM732.5 333L727.785 343.939L732.5 356C731.106 355.82 729.713 355.573 728.319 355.349L725.649 348.7L722.931 354.81C721.584 354.585 720.284 354.517 718.937 354.338L723.721 343.804L719.401 333H723.396L725.834 339.042L728.436 333H732.5Z" fill="#4765FF"/>
<rect x="765" y="280.5" width="127" height="127" rx="11.5" stroke="#4765FF"/>
<path d="M825.031 334H825.838C827.612 334.054 829.439 334.43 830.998 335.398C832.288 336.204 833.256 337.386 833.793 338.784C834.169 339.698 834.385 340.719 834.438 341.687H828.633C828.579 340.88 828.31 340.02 827.665 339.483C827.02 338.892 826.106 338.73 825.246 338.784C824.494 338.784 823.741 339.053 823.204 339.59C822.559 340.235 822.236 341.096 822.075 341.956C821.86 342.977 821.86 344.052 821.967 345.073C822.075 346.095 822.29 347.17 822.935 347.976C823.419 348.621 824.118 348.997 824.924 349.105C825.73 349.212 826.59 349.159 827.343 348.782C827.934 348.46 828.364 347.922 828.579 347.331C828.74 346.955 828.794 346.525 828.848 346.095H834.6C834.492 347.761 834.008 349.427 833.041 350.771C832.127 352.008 830.837 352.868 829.385 353.405C828.31 353.781 827.128 353.943 825.999 353.996H825.085C823.526 353.943 821.967 353.62 820.57 352.921C819.172 352.223 818.043 351.147 817.237 349.804C816.269 348.191 815.839 346.256 815.786 344.428C815.678 342.386 816.001 340.397 816.914 338.677C817.613 337.279 818.688 336.096 820.032 335.344C821.537 334.43 823.257 334 825.031 334Z" fill="#4765FF"/>
<path d="M794.284 334.806C794.768 334.323 795.467 334 796.219 334C796.972 334 797.724 334.269 798.262 334.806L801.541 338.085L804.82 334.806C805.304 334.323 806.056 334 806.755 334C807.508 334 808.206 334.269 808.744 334.806L812.775 338.838C813.313 339.375 813.636 340.182 813.582 340.934C813.528 341.633 813.259 342.278 812.775 342.762C809.013 346.471 805.304 350.234 801.541 353.943C797.778 350.234 794.069 346.471 790.306 342.762C789.823 342.278 789.554 341.633 789.5 340.988V340.558C789.554 339.913 789.823 339.268 790.306 338.784C791.65 337.494 792.94 336.15 794.284 334.806Z" fill="#4765FF"/>
<path d="M833.201 334.483H839.383C840.458 338.569 841.479 342.6 842.554 346.686C843.683 342.6 844.812 338.569 845.941 334.483H851.908C849.811 340.773 847.661 347.062 845.511 353.351H839.437C837.448 347.116 835.351 340.826 833.201 334.483Z" fill="#4765FF"/>
</svg>
